<?xml version="1.0" standalone="no"?>
<!DOCTYPE svg PUBLIC "-//W3C//DTD SVG 20010904//EN"
 "http://www.w3.org/TR/2001/REC-SVG-20010904/DTD/svg10.dtd">
<svg version="1.0" xmlns="http://www.w3.org/2000/svg"
 width="512.000000pt" height="512.000000pt" viewBox="0 0 512.000000 512.000000"
 preserveAspectRatio="xMidYMid meet">
<metadata>
Created by potrace 1.11, written by Peter Selinger 2001-2013
</metadata>
<g transform="translate(0.000000,512.000000) scale(0.100000,-0.100000)"
fill="#000000" stroke="none">
<path d="M445 4960 c-121 -3 -227 -9 -235 -13 -8 -4 -23 -19 -33 -32 -16 -23
-17 -144 -17 -2349 0 -1654 3 -2332 11 -2349 6 -13 23 -31 39 -40 26 -16 202
-17 2350 -17 2148 0 2324 1 2350 17 16 9 33 27 39 40 8 17 11 697 11 2344 0
2161 -1 2323 -17 2350 -9 15 -28 33 -42 39 -27 11 -4020 20 -4456 10z m4315
-500 l0 -300 -2200 0 -2200 0 0 300 0 300 2200 0 2200 0 0 -300z m-2071 -764
c4 -3 18 -7 32 -10 93 -19 129 -31 204 -69 154 -77 269 -185 347 -327 24 -43
66 -154 74 -195 15 -76 18 -113 17 -210 -4 -316 -162 -591 -413 -716 -69 -35
-109 -38 -148 -13 -35 23 -41 51 -43 197 -1 145 -18 218 -61 265 -76 82 -221
73 -287 -18 -40 -55 -51 -115 -51 -273 0 -131 0 -133 -28 -167 -25 -29 -35
-34 -70 -33 -40 1 -172 57 -172 74 0 4 -8 10 -18 13 -31 10 -182 170 -182 194
0 6 -4 12 -8 12 -25 0 -118 222 -141 335 -13 67 -6 247 13 320 9 33 18 67 20
75 22 88 111 240 184 316 122 126 286 212 437 229 33 4 62 9 65 12 6 6 218 -5
229 -11z m1321 -1953 c60 -35 66 -109 12 -163 -14 -13 -182 -15 -1446 -18
-988 -1 -1439 1 -1457 8 -50 21 -72 90 -45 139 29 53 -45 50 1484 51 1311 0
1426 -1 1452 -17z m6 -401 c60 -48 57 -128 -6 -165 -26 -16 -141 -17 -1450
-17 -1271 0 -1424 2 -1451 16 -20 10 -29 21 -25 30 3 8 2 13 -3 10 -10 -7 -21
17 -21 46 0 28 29 74 54 87 14 6 507 10 1451 10 1338 0 1431 -1 1451 -17z
m-613 -393 c28 -13 57 -58 57 -89 0 -32 -30 -78 -59 -90 -18 -7 -289 -10 -857
-8 -899 3 -843 0 -872 55 -24 45 -6 104 39 129 32 17 1654 20 1692 3z"/>
<path d="M804 4624 c-44 -21 -65 -64 -62 -123 2 -27 5 -47 7 -45 2 2 17 -8 33
-21 35 -29 101 -34 136 -9 28 19 52 65 52 98 0 31 -29 82 -55 96 -33 17 -80
19 -111 4z"/>
<path d="M1340 4633 c-71 -26 -101 -96 -69 -161 51 -103 199 -75 214 39 5 41
-22 95 -54 109 -35 14 -73 19 -91 13z"/>
<path d="M1863 4625 c-108 -46 -79 -207 40 -217 89 -8 152 102 101 179 -28 43
-90 60 -141 38z"/>
<path d="M2395 3493 c-179 -38 -344 -182 -415 -362 -93 -237 -45 -491 129
-681 l50 -55 2 40 c7 128 38 218 101 299 38 49 38 49 19 68 -26 24 -66 94 -79
138 -42 142 9 301 125 390 62 47 157 78 230 74 289 -13 449 -329 286 -565 -36
-52 -36 -53 -15 -69 22 -18 96 -130 86 -130 -4 0 -2 -6 4 -12 15 -18 33 -94
37 -151 2 -27 6 -51 9 -54 12 -12 88 86 125 162 51 104 74 199 74 310 0 163
-27 254 -112 365 -42 55 -122 130 -138 130 -6 0 -13 4 -15 9 -5 14 -109 63
-178 83 -86 26 -234 31 -325 11z"/>
</g>
</svg>
